<svg width="136" height="128" viewBox="0 0 136 128" fill="none" xmlns="http://www.w3.org/2000/svg">
<path d="M94.1349 65.712C94.1349 65.712 94.4549 65.68 95.0949 65.616C93.1109 61.2 89.8789 58.512 85.3989 57.552C82.3269 56.848 79.3189 56.784 76.3749 57.36C76.1829 57.36 75.8629 57.392 75.4149 57.456C75.0309 57.52 74.7749 57.552 74.6469 57.552C73.0469 57.744 71.7349 58.32 70.7109 59.28C70.3269 59.536 69.3989 60.176 67.9269 61.2C66.7109 62.032 65.2389 62.448 63.5109 62.448C61.8469 62.512 60.4069 61.68 59.1909 59.952C59.2549 59.12 59.7989 58.352 60.8229 57.648C62.1029 56.752 63.5109 56.144 65.0469 55.824C66.8389 55.44 68.4709 54.416 69.9429 52.752C73.3989 48.976 75.9909 45.136 77.7189 41.232C78.5509 39.376 79.0949 37.328 79.3509 35.088C79.6069 32.976 79.2869 31.216 78.3909 29.808C77.7509 29.616 76.8549 29.808 75.7029 30.384C74.3589 31.024 72.9829 32.016 71.5749 33.36C69.2069 35.536 66.9349 38.192 64.7589 41.328C60.8549 46.896 56.8229 53.424 52.6629 60.912C48.8869 67.76 46.1349 73.392 44.4069 77.808C44.4069 77.872 44.1509 78.448 43.6389 79.536C42.1669 79.664 41.1749 79.76 40.6629 79.824C39.8309 79.12 38.9349 78.384 37.9749 77.616C38.1669 76.784 38.2629 76.368 38.2629 76.368C42.4229 63.056 46.3909 48.592 50.1669 32.976C50.3589 32.208 50.9989 30.192 52.0869 26.928C52.5349 25.648 53.1109 24.72 53.8149 24.144C54.5189 24.144 54.8709 24.144 54.8709 24.144C55.7029 24.336 56.1509 24.848 56.2149 25.68C56.2149 26.064 56.1829 26.32 56.1189 26.448C55.6069 28.24 55.0629 30.832 54.4869 34.224C53.9749 37.616 53.6229 39.728 53.4309 40.56C53.3669 40.944 52.8229 43.856 51.7989 49.296C52.5669 48.08 52.9829 47.44 53.0469 47.376C57.4629 40.656 59.8309 37.072 60.1509 36.624C62.2629 33.552 64.4389 31.12 66.6789 29.328C67.8309 28.432 68.9189 27.696 69.9429 27.12C71.9909 26.032 74.1989 25.68 76.5669 26.064C78.9349 26.384 81.0149 27.408 82.8069 29.136C84.9189 31.248 85.7829 33.968 85.3989 37.296C85.0149 40.048 84.0869 42.736 82.6149 45.36C81.3989 47.536 79.8629 49.744 78.0069 51.984C78.0069 51.984 77.6229 52.464 76.8549 53.424C79.4789 53.744 80.8229 53.904 80.8869 53.904C89.3989 54.544 95.9269 58.576 100.471 66C101.879 68.24 102.775 71.024 103.159 74.352C103.671 78.32 103.255 82.48 101.911 86.832C99.9909 93.296 96.6309 99.408 91.8309 105.168C85.6229 112.72 78.4229 118.48 70.2309 122.448C64.9829 124.944 59.2549 126.512 53.0469 127.152C49.2709 127.536 45.6869 127.504 42.2949 127.056C37.0469 126.288 32.6629 124.656 29.1429 122.16C24.4069 118.832 22.5509 114.224 23.5749 108.336C24.2789 103.728 26.4229 99.12 30.0069 94.512C33.3349 90.224 37.5269 86.512 42.5829 83.376C54.6789 76.016 67.1909 70.736 80.1189 67.536C85.3029 66.256 89.9749 65.648 94.1349 65.712ZM96.9189 78.48C97.4309 74.768 97.1429 71.248 96.0549 67.92C94.3909 67.792 92.0869 68.016 89.1429 68.592C84.4069 69.36 79.1589 70.864 73.3989 73.104C64.3109 76.688 56.1829 80.816 49.0149 85.488C44.9829 88.112 41.3989 91.184 38.2629 94.704C34.6789 98.736 32.1189 103.12 30.5829 107.856C29.6869 110.48 29.3989 113.072 29.7189 115.632C30.1029 118.832 31.6389 120.944 34.3269 121.968C35.6069 122.48 36.5029 122.832 37.0149 123.024C42.4549 124.496 48.3429 124.56 54.6789 123.216C59.8629 122.128 65.0149 119.92 70.1349 116.592C77.6869 111.664 84.1509 105.2 89.5269 97.2C93.5589 91.248 96.0229 85.008 96.9189 78.48Z" fill="#C6C6C6"/>
<path d="M33 69L40 63.5L45.5 58L55.5 47.5" stroke="#C6C6C6" stroke-width="4" stroke-linecap="round"/>
</svg>
